<?xml version="1.0" encoding="UTF-8"?>
<svg version="1.1" xmlns="http://www.w3.org/2000/svg" width="500" height="500">
<path d="M0 0 C1.22987892 -0.01058945 1.22987892 -0.01058945 2.48460388 -0.02139282 C37.13572098 -0.25194572 37.13572098 -0.25194572 52.20703125 3.203125 C53.08343262 3.40180176 53.95983398 3.60047852 54.86279297 3.80517578 C91.90836771 12.49841577 124.38342205 30.62371685 151.77880859 56.83789062 C153.05465701 58.05747085 154.34292687 59.2640259 155.6328125 60.46875 C162.22954164 66.79598577 167.78863597 73.86567392 173.20703125 81.203125 C173.82747314 82.04109619 173.82747314 82.04109619 174.46044922 82.89599609 C191.250281 105.93887284 202.38733949 132.39975253 208.20703125 160.203125 C208.45477295 161.3478125 208.45477295 161.3478125 208.70751953 162.515625 C213.76303812 186.94104677 213.60574495 215.86283271 208.20703125 240.203125 C207.90901611 241.57065918 207.90901611 241.57065918 207.60498047 242.96582031 C200.93188543 272.66734147 188.1235285 300.30734825 169.20703125 324.203125 C168.72878906 324.80833984 168.25054687 325.41355469 167.7578125 326.03710938 C158.15194323 338.05117276 147.4021298 348.81483484 135.20703125 358.203125 C134.66240234 358.62948242 134.11777344 359.05583984 133.55664062 359.49511719 C123.68512163 367.18958401 113.33263897 373.48586585 102.20703125 379.203125 C101.13533691 379.75444092 101.13533691 379.75444092 100.04199219 380.31689453 C82.22170491 389.35812994 63.80958601 394.5363158 44.20703125 398.203125 C43.24595459 398.39148926 42.28487793 398.57985352 41.29467773 398.77392578 C31.50832081 400.5101023 21.80239172 400.60107972 11.89453125 400.578125 C11.01130188 400.57758118 10.12807251 400.57703735 9.21807861 400.57647705 C-5.12717723 400.53594182 -18.79904804 399.55457784 -32.79296875 396.203125 C-34.1699292 395.88964111 -34.1699292 395.88964111 -35.57470703 395.56982422 C-85.54575159 384.00205164 -129.39409708 352.4830368 -157.48046875 309.765625 C-158.60218047 307.9220196 -159.70437779 306.0664789 -160.79296875 304.203125 C-161.35081055 303.26726562 -161.35081055 303.26726562 -161.91992188 302.3125 C-178.06776218 275.08381208 -188.81289818 243.16029811 -188.99609375 211.27734375 C-189.00310806 210.45601456 -189.01012238 209.63468536 -189.01734924 208.78846741 C-189.03474297 206.15579677 -189.04120049 203.52335097 -189.04296875 200.890625 C-189.04364349 199.99162476 -189.04431824 199.09262451 -189.04501343 198.16638184 C-189.02960927 185.27007992 -188.67922255 172.82196297 -185.79296875 160.203125 C-185.62667969 159.41776367 -185.46039063 158.63240234 -185.2890625 157.82324219 C-177.33959145 120.56377695 -159.20883134 87.55439348 -132.79296875 60.203125 C-131.87336682 59.2203618 -130.95409938 58.2372855 -130.03515625 57.25390625 C-97.73621663 23.25209352 -47.04250839 0.26991375 0 0 Z M-39.79296875 19.203125 C-40.56334473 19.4088916 -41.3337207 19.6146582 -42.12744141 19.82666016 C-61.98055834 25.33339605 -81.26855219 34.94275337 -97.79296875 47.203125 C-98.33775879 47.59677246 -98.88254883 47.99041992 -99.44384766 48.39599609 C-106.03180237 53.16295356 -112.18848081 58.31811749 -118.16796875 63.828125 C-118.72685791 64.34221924 -119.28574707 64.85631348 -119.86157227 65.38598633 C-155.32601462 98.7205588 -175.24526049 146.97979405 -176.79296875 195.203125 C-177.20364947 225.76884523 -171.24588066 254.74768102 -157.79296875 282.203125 C-157.46538574 282.87214844 -157.13780273 283.54117187 -156.80029297 284.23046875 C-148.30850794 301.32404698 -136.8403083 318.15916685 -122.79296875 331.203125 C-117.79296875 336.203125 -117.79296875 336.203125 -116.32519531 337.74121094 C-86.57330422 368.48424177 -39.97448932 386.53957273 2.41015625 387.40625 C33.56870377 387.71161227 61.74372279 383.46550853 90.20703125 370.203125 C90.92648926 369.87022461 91.64594727 369.53732422 92.38720703 369.19433594 C101.52698587 364.92005308 109.99375679 360.10185152 118.20703125 354.203125 C119.18027344 353.51605469 120.15351563 352.82898438 121.15625 352.12109375 C128.51746922 346.78060138 135.19039454 340.88096 141.74658203 334.60058594 C143.0354416 333.36731409 144.33708932 332.14743672 145.640625 330.9296875 C152.23573296 324.60496721 157.7249229 317.48559015 163.20703125 310.203125 C163.83480469 309.38199219 164.46257812 308.56085938 165.109375 307.71484375 C193.62171766 268.87096987 203.72215465 218.28324024 197.07299805 171.01391602 C192.20510479 141.90580243 180.79982413 113.91643574 163.20703125 90.203125 C162.79275879 89.64077148 162.37848633 89.07841797 161.95166016 88.49902344 C157.11614891 81.95998927 152.17904969 75.75632656 146.20703125 70.203125 C141.20703125 65.203125 141.20703125 65.203125 139.56640625 63.38671875 C107.07025996 28.65166474 58.16344931 14.49931244 12.20703125 12.203125 C-5.41598826 12.203125 -22.80618359 14.63386411 -39.79296875 19.203125 Z " fill="#68A4AB" transform="translate(238.79296875,49.796875)"/>
<path d="M0 0 C2.8125 1.9375 2.8125 1.9375 5 4 C5 4.66 5 5.32 5 6 C5.89513306 6.15384155 5.89513306 6.15384155 6.80834961 6.31079102 C9.37528578 7.11801624 10.29604927 8.02846077 12.06640625 10.02734375 C12.62956543 10.6502832 13.19272461 11.27322266 13.77294922 11.91503906 C14.36350098 12.58245117 14.95405273 13.24986328 15.5625 13.9375 C20.78376706 19.71627119 26.14587378 25.01408326 32.0859375 30.046875 C34 32 34 32 34 35 C34.5775 35.20625 35.155 35.4125 35.75 35.625 C38.82144939 37.50199685 40.05442771 39.99320645 42 43 C42.886875 43.86625 43.77375 44.7325 44.6875 45.625 C47.02100383 48.0215715 47.33551183 48.8990552 48 52 C48.99 52.33 49.98 52.66 51 53 C52.99396257 55.66083969 55 58.61242325 55 62 C55.66 62.33 56.32 62.66 57 63 C57.66666667 64.33333333 58.33333333 65.66666667 59 67 C59.66 67.33 60.32 67.66 61 68 C61 69.32 61 70.64 61 72 C61.99 72.33 62.98 72.66 64 73 C64.69258229 74.99117408 65.35747635 76.9921136 66 79 C66.97850195 80.02104551 67.97980427 81.0206121 69 82 C72 87.33333333 72 87.33333333 72 91 C72.66 91.33 73.32 91.66 74 92 C75.1875 93.9375 75.1875 93.9375 76 96 C75.67 96.66 75.34 97.32 75 98 C75.66 98 76.32 98 77 98 C81 108 81 108 82.0703125 110.68359375 C82.70013016 112.2528453 83.34382548 113.81658551 84 115.375 C85.62828231 119.64924107 86.8487605 123.83329527 87.4375 128.375 C88.0289153 132.18634302 89.12668047 135.48440988 90.4765625 139.08203125 C91 141 91 141 90 143 C90.66 143.33 91.32 143.66 92 144 C92 144.99 92 145.98 92 147 C92.25792647 148.69298542 92.55297326 150.38052959 92.875 152.0625 C93.11863281 153.37927734 93.11863281 153.37927734 93.3671875 154.72265625 C93.84765226 157.17563908 93.84765226 157.17563908 96 159 C96.23046875 161.2421875 96.23046875 161.2421875 96.1875 163.875 C96.17783203 165.17050781 96.17783203 165.17050781 96.16796875 166.4921875 C96.01298902 168.80607085 95.61083126 170.77253263 95 173 C94.66073053 175.33247761 94.32759934 177.66585471 94 180 C93.28408773 184.09092728 92.15965321 188.01369207 91 192 C90.65864073 193.33130115 90.32074044 194.66358148 90 196 C89.34 196 88.68 196 88 196 C88 197.65 88 199.3 88 201 C87.01 201.33 86.02 201.66 85 202 C85.33 202.99 85.66 203.98 86 205 C84.625 207 84.625 207 83 209 C82.67 209.99 82.34 210.98 82 212 C81.34 212 80.68 212 80 212 C79.7525 212.721875 79.505 213.44375 79.25 214.1875 C77.87843409 217.2735233 76.17558176 219.42885792 74 222 C73.505 222.721875 73.01 223.44375 72.5 224.1875 C70.82175785 226.21537593 69.37332681 226.92817499 67 228 C66.34 228.66 65.68 229.32 65 230 C64.96982142 232.12825897 64.96982142 232.12825897 65.25 234.75 C64.92958654 238.91537501 63.63541828 240.79476155 61 244 C58.03091234 246.15258855 55.5177844 247.15087963 52 248 C51.34 248.66 50.68 249.32 50 250 C49.34 250.33 48.68 250.66 48 251 C47.938125 251.61875 47.87625 252.2375 47.8125 252.875 C47 255 47 255 43.875 256.6875 C41.21822476 257.71645598 39.28343227 258.0741277 36.375 258.375 C32.17727801 259.15235592 30.70969158 260.79763723 28 264 C27.01 263.67 26.02 263.34 25 263 C25 263.66 25 264.32 25 265 C23.5629191 265.05422947 22.12524538 265.09289723 20.6875 265.125 C19.88699219 265.14820313 19.08648437 265.17140625 18.26171875 265.1953125 C16 265 16 265 13 263 C12.67 263.99 12.34 264.98 12 266 C8.90685339 267.96836602 6.94988384 269.06476481 3.25 268.8125 C1 268 1 268 -1 266 C-1.61875 265.71125 -2.2375 265.4225 -2.875 265.125 C-5.40156407 263.78740726 -7.05926336 262.07936068 -9 260 C-9.556875 260.61875 -10.11375 261.2375 -10.6875 261.875 C-14.20969361 265.11161034 -17.35684254 266.11447713 -22.0625 266.4375 C-23.361875 266.293125 -24.66125 266.14875 -26 266 C-26.639375 265.175 -27.27875 264.35 -27.9375 263.5 C-29.70568324 260.78835415 -29.70568324 260.78835415 -32.23828125 260.66796875 C-34.51048175 260.68563749 -36.73864203 260.78256173 -39 261 C-39 260.34 -39 259.68 -39 259 C-40.32 259 -41.64 259 -43 259 C-43 258.34 -43 257.68 -43 257 C-43.99 256.67 -44.98 256.34 -46 256 C-46.33 255.34 -46.66 254.68 -47 254 C-49.33163378 253.32741333 -51.6652039 252.66152556 -54 252 C-56.8125 250.6875 -56.8125 250.6875 -59 249 C-59.28875 248.175 -59.5775 247.35 -59.875 246.5 C-60.830527 243.62149979 -60.830527 243.62149979 -64.375 242.5625 C-68.69688374 240.69961908 -69.94753041 239.18703797 -72 235 C-71.938125 234.030625 -71.87625 233.06125 -71.8125 232.0625 C-72.11001912 227.20302099 -75.55482887 225.14658964 -79 222 C-82 218.41935484 -82 218.41935484 -82 216 C-82.66 215.67 -83.32 215.34 -84 215 C-90.48315685 206.15732688 -94.04176669 196.45242435 -97 186 C-97.33 185.01 -97.66 184.02 -98 183 C-98.19742042 181.35757182 -98.36118601 179.71091615 -98.5 178.0625 C-98.70739654 175.60707315 -98.92553591 173.29785634 -99.5234375 170.90625 C-100.54060727 166.83757092 -100.31402975 162.94208924 -99 159 C-98.34 159 -97.68 159 -97 159 C-97.09539062 158.27554688 -97.19078125 157.55109375 -97.2890625 156.8046875 C-97.9321959 151.19596601 -98.08435736 147.32669102 -96 142 C-95.70304838 139.68457995 -95.50462108 137.37939013 -95.34375 135.05078125 C-95 133 -95 133 -93 130 C-92.64159778 127.67038557 -92.31151288 125.33634657 -92 123 C-90.77227323 118.08909293 -89.06165844 113.6181149 -87 109 C-86.505 107.80375 -86.01 106.6075 -85.5 105.375 C-84 102 -84 102 -82.375 99.3125 C-81.05513325 97.0927241 -80.5998328 95.4743103 -80 93 C-79.03523618 90.98276656 -78.03161608 88.98387708 -77 87 C-76.505 85.989375 -76.01 84.97875 -75.5 83.9375 C-73.60754403 80.23144039 -71.51383364 76.76189126 -69.1875 73.3125 C-67.37964417 70.57488974 -65.67711579 67.81772351 -64 65 C-59.23165138 57.02866972 -59.23165138 57.02866972 -57 54 C-56.34 54 -55.68 54 -55 54 C-54.896875 53.4225 -54.79375 52.845 -54.6875 52.25 C-53.89103535 49.64338842 -52.80934723 48.0264689 -51 46 C-50.34 46 -49.68 46 -49 46 C-48.75121094 45.27167969 -48.50242188 44.54335937 -48.24609375 43.79296875 C-46.88674967 40.74616305 -45.30437036 38.77146023 -43.0625 36.3125 C-42.37285156 35.54550781 -41.68320313 34.77851563 -40.97265625 33.98828125 C-39 32 -39 32 -36 30 C-34.99041835 28.33911991 -33.99143041 26.67177855 -33 25 C-31.65950329 23.48261713 -30.26929439 22.00811312 -28.83984375 20.57421875 C-28.04642578 19.77822266 -27.25300781 18.98222656 -26.43554688 18.16210938 C-25.61119141 17.34548828 -24.78683594 16.52886719 -23.9375 15.6875 C-23.10927734 14.85154297 -22.28105469 14.01558594 -21.42773438 13.15429688 C-20.63560547 12.36474609 -19.84347656 11.57519531 -19.02734375 10.76171875 C-18.30281006 10.03944092 -17.57827637 9.31716309 -16.83178711 8.57299805 C-15 7 -15 7 -13 7 C-11.49153848 5.47379124 -11.49153848 5.47379124 -10 3.5625 C-6.71271578 -0.50551422 -5.21417487 -1.57637845 0 0 Z M-6 10.9375 C-6.66 11.618125 -7.32 12.29875 -8 13 C-8.66 13.33 -9.32 13.66 -10 14 C-10 14.66 -10 15.32 -10 16 C-10.66 16 -11.32 16 -12 16 C-13.4323278 17.41647671 -13.4323278 17.41647671 -14.9375 19.3125 C-18.08326912 23.0157472 -21.38075917 26.50238092 -24.8125 29.9375 C-25.29259521 30.4219458 -25.77269043 30.9063916 -26.26733398 31.40551758 C-29.750804 34.875402 -29.750804 34.875402 -32 36 C-32.495 36.825 -32.99 37.65 -33.5 38.5 C-35 41 -35 41 -37 42 C-37.268125 42.5775 -37.53625 43.155 -37.8125 43.75 C-39.37606409 46.71254248 -41.63981386 48.63981386 -44 51 C-44.68268138 52.32520503 -45.3507041 53.65812182 -46 55 C-46.680625 55.66 -47.36125 56.32 -48.0625 57 C-50.13808642 59.14254082 -50.32638241 60.20929856 -51 63 C-51.99 63.33 -52.98 63.66 -54 64 C-54.71727778 65.64551962 -55.38325228 67.31422289 -56 69 C-56.66 69.66 -57.32 70.32 -58 71 C-62.21058937 77.0983079 -62.21058937 77.0983079 -64 84 C-64.66 84 -65.32 84 -66 84 C-66 84.99 -66 85.98 -66 87 C-66.99 87.495 -66.99 87.495 -68 88 C-68 88.99 -68 89.98 -68 91 C-68.66 91 -69.32 91 -70 91 C-70.33 92.98 -70.66 94.96 -71 97 C-71.66 97 -72.32 97 -73 97 C-73.433125 98.0828125 -73.433125 98.0828125 -73.875 99.1875 C-74.55173787 100.87934466 -75.23666444 102.56799465 -75.9375 104.25 C-77.9281199 109.40219269 -79.71998862 114.62395219 -81 120 C-81.66 120 -82.32 120 -83 120 C-83 122.31 -83 124.62 -83 127 C-83.66 127 -84.32 127 -85 127 C-85.12375 128.2375 -85.2475 129.475 -85.375 130.75 C-85.67362498 133.2575715 -85.90731119 134.83007052 -87.125 137.0625 C-88.50725432 140.12320599 -87.61693221 142.79195251 -87 146 C-87.66 146 -88.32 146 -89 146 C-89.22134176 148.12368444 -89.42670007 150.24904024 -89.625 152.375 C-89.74101562 153.55835938 -89.85703125 154.74171875 -89.9765625 155.9609375 C-89.98429688 156.96382812 -89.99203125 157.96671875 -90 159 C-89.34 159.66 -88.68 160.32 -88 161 C-87.566875 161.474375 -87.13375 161.94875 -86.6875 162.4375 C-84.98409405 164.12572203 -84.98409405 164.12572203 -82.5625 165.4375 C-79.95536143 167.02721864 -78.1468936 168.8531064 -76 171 C-75.34 171 -74.68 171 -74 171 C-73.505 171.99 -73.505 171.99 -73 173 C-70.47266765 173.65555119 -70.47266765 173.65555119 -68 174 C-68 174.66 -68 175.32 -68 176 C-67.01 176 -66.02 176 -65 176 C-64.505 176.99 -64.505 176.99 -64 178 C-63.175 178.165 -62.35 178.33 -61.5 178.5 C-60.675 178.665 -59.85 178.83 -59 179 C-58.505 179.99 -58.505 179.99 -58 181 C-57.01 181 -56.02 181 -55 181 C-55 181.66 -55 182.32 -55 183 C-54.14535156 183.185625 -54.14535156 183.185625 -53.2734375 183.375 C-50.89628461 184.02851282 -48.84808672 184.93915862 -46.625 186 C-43.05976043 187.61896944 -39.91556019 188.55504998 -36 189 C-35.195625 189.165 -34.39125 189.33 -33.5625 189.5 C-30.38964019 190.1190946 -27.2021202 190.56049331 -24 191 C-23.67 190.34 -23.34 189.68 -23 189 C-21.15234375 187.9296875 -21.15234375 187.9296875 -18.9375 186.875 C-17.83728516 186.34519531 -17.83728516 186.34519531 -16.71484375 185.8046875 C-16.14894531 185.53914062 -15.58304687 185.27359375 -15 185 C-15 184.34 -15 183.68 -15 183 C-13.9790625 182.814375 -13.9790625 182.814375 -12.9375 182.625 C-9.55695277 181.90573463 -6.28616387 181.0743228 -3 180 C-2.67 179.34 -2.34 178.68 -2 178 C-1.01 178.33 -0.02 178.66 1 179 C1 178.34 1 177.68 1 177 C1.99 177.33 2.98 177.66 4 178 C5.70632648 178.09267588 7.41616587 178.12998202 9.125 178.125 C10.01445312 178.12757813 10.90390625 178.13015625 11.8203125 178.1328125 C13.97791088 178.24301985 13.97791088 178.24301985 15 177 C15 177.33 15 177.66 15 178 C15.86625 177.938125 16.7325 177.87625 17.625 177.8125 C21.47805221 178.02655846 23.63983518 179.17382346 27 181 C28.32303717 181.3721042 29.65737935 181.70630173 31 182 C33.00382009 182.65509503 35.00458132 183.31974363 37 184 C37 184.66 37 185.32 37 186 C39.36651218 186.84518292 40.52437854 187.20610263 42.875 186.1875 C43.57625 185.795625 44.2775 185.40375 45 185 C46.423125 184.566875 46.423125 184.566875 47.875 184.125 C51.36391128 182.86899194 53.95101091 181.09618 57 179 C58.98507948 177.97069953 60.98114251 176.96136071 63 176 C63 175.34 63 174.68 63 174 C64.3303125 173.5978125 64.3303125 173.5978125 65.6875 173.1875 C71.29076592 171.27175632 71.29076592 171.27175632 75 167 C75.99 166.34 76.98 165.68 78 165 C78.845625 164.13375 79.69125 163.2675 80.5625 162.375 C83 160 83 160 85 160 C84.855625 159.01 84.71125 158.02 84.5625 157 C84.1811909 154.33620686 83.82863225 151.67078909 83.5 149 C83.41621094 148.33355469 83.33242188 147.66710937 83.24609375 146.98046875 C83.01142926 145.09197837 82.78670884 143.20226024 82.5625 141.3125 C82.04183301 138.24634998 81.22702736 135.83750077 80 133 C79.45507581 130.99501175 78.99943902 128.99709514 78.60546875 126.95703125 C77.63338342 121.96941586 76.10243515 117.65568321 73.94140625 113.0625 C72.74519263 110.44174982 71.91038459 107.73115376 71 105 C69.66295662 102.21449295 68.25442579 99.48206992 66.8125 96.75 C66 95 66 95 66 93 C65.38125 92.4225 64.7625 91.845 64.125 91.25 C61.65892567 88.63886247 60.93542439 86.42988945 60 83 C59.34 83 58.68 83 58 83 C58 81.68 58 80.36 58 79 C57.34 78.34 56.68 77.68 56 77 C55.67 76.01 55.34 75.02 55 74 C54.34 73.34 53.68 72.68 53 72 C52.30251417 70.68252676 51.63040043 69.35085807 51 68 C50.34 68 49.68 68 49 68 C48.67 66.68 48.34 65.36 48 64 C47.34 64 46.68 64 46 64 C45.67 62.35 45.34 60.7 45 59 C44.34 59 43.68 59 43 59 C42.566875 57.824375 42.566875 57.824375 42.125 56.625 C41.15087746 53.90328368 41.15087746 53.90328368 39 52 C36.97277088 49.49975075 34.98044543 46.97494571 33 44.4375 C31.10780161 42.13138322 29.13999335 40.07514506 27 38 C25.33181354 36.33483015 23.66546434 34.6678886 22 33 C20.80216785 31.80199883 19.60424514 30.60408819 18.40625 29.40625 C10.59375 21.59375 10.59375 21.59375 8.72973633 19.72924805 C7.21031553 18.21025616 5.68927201 16.69288781 4.16796875 15.17578125 C2.6964979 13.6990078 1.24512403 12.20198826 -0.1875 10.6875 C-2.82427494 8.23257161 -3.42684543 8.44475651 -6 10.9375 Z M-91 171 C-90.855625 171.825 -90.71125 172.65 -90.5625 173.5 C-90.15891449 176.01119872 -89.83431448 178.47600838 -89.5625 181 C-88.9136847 186.322313 -87.02480591 191.0645356 -85 196 C-84.33333333 197.66666667 -83.66666667 199.33333333 -83 201 C-82.34 201 -81.68 201 -81 201 C-80.67 202.65 -80.34 204.3 -80 206 C-79.34 206 -78.68 206 -78 206 C-78 207.32 -78 208.64 -78 210 C-75.81356892 212.43802877 -75.81356892 212.43802877 -73 215 C-71.48076938 216.79510115 -69.9968973 218.61329451 -68.52734375 220.44921875 C-66.82883561 222.17379096 -65.20606878 223.03692051 -63 224 C-62.01 223.34 -61.02 222.68 -60 222 C-59.34 222 -58.68 222 -58 222 C-57.566875 221.54625 -57.13375 221.0925 -56.6875 220.625 C-54.62155076 218.63556739 -52.67991395 217.98045632 -50 217 C-49.38125 216.62875 -48.7625 216.2575 -48.125 215.875 C-44.87972796 214.53871151 -42.47002719 214.57385631 -39 215 C-36.50107844 217.10136585 -34.59679647 219.17585249 -32.6875 221.8125 C-30.19786247 223.56446715 -27.92634548 222.91041858 -25.00390625 222.78125 C-23 223 -23 223 -20.0625 225.375 C-17.14760148 229.08487085 -17.14760148 229.08487085 -16.6875 231.9375 C-15.77767157 234.6669853 -14.32315958 235.38082817 -12 237 C-9.70986347 240.4352048 -9.82157027 241.985331 -10 246 C-8.68 246 -7.36 246 -6 246 C-5.67 245.34 -5.34 244.68 -5 244 C-0.44334975 243.63054187 -0.44334975 243.63054187 1.5 245.25 C1.995 245.8275 2.49 246.405 3 247 C4.66270287 248.33827304 6.32916181 249.67189785 8 251 C8.66 251.66 9.32 252.32 10 253 C10.99 253 11.98 253 13 253 C13.33 253.99 13.66 254.98 14 256 C16.64 256.33 19.28 256.66 22 257 C22.33 256.34 22.66 255.68 23 255 C22.0925 254.54625 21.185 254.0925 20.25 253.625 C19.1775 253.08875 18.105 252.5525 17 252 C16.2575 251.649375 15.515 251.29875 14.75 250.9375 C13 250 13 250 11 248 C10.01 248 9.02 248 8 248 C7.67 247.34 7.34 246.68 7 246 C6.236875 245.566875 5.47375 245.13375 4.6875 244.6875 C1.6948813 242.80841384 0.00263923 240.89270111 -2 238 C-2 237.34 -2 236.68 -2 236 C0.1875 234.8125 0.1875 234.8125 3 234 C6.30615118 235.49563982 8.47029736 237.47029736 11 240 C12.485 240.495 12.485 240.495 14 241 C14.4125 241.45375 14.825 241.9075 15.25 242.375 C17.82233315 244.76359507 20.75760287 245.71422183 24 247 C25.175625 247.556875 25.175625 247.556875 26.375 248.125 C30.19541589 249.39847196 33.95616373 250.21878965 38 250 C40.5905727 248.24905348 40.5905727 248.24905348 42 246 C40.9275 245.87625 39.855 245.7525 38.75 245.625 C35.5345893 245.08909822 33.79557123 244.44598512 31 243 C29.68 243 28.36 243 27 243 C26.67 242.34 26.34 241.68 26 241 C24.68027598 240.30678233 23.34402179 239.64484701 22 239 C19.67974147 237.48399053 17.40259458 235.91342527 15.12109375 234.33984375 C12.95108832 232.85075698 12.95108832 232.85075698 10 232 C9.67 231.34 9.34 230.68 9 230 C6.98330173 228.86649466 6.98330173 228.86649466 5 228 C5 226.02 5 224.04 5 222 C7.875 221.875 7.875 221.875 11 222 C11.66 222.66 12.32 223.32 13 224 C13.66 224.309375 14.32 224.61875 15 224.9375 C17 226 17 226 19 229 C21.31808364 230.03485877 23.65175298 231.0355414 26 232 C26.66 232.66 27.32 233.32 28 234 C28.66 234 29.32 234 30 234 C30.33 234.66 30.66 235.32 31 236 C32.65 236 34.3 236 36 236 C36.33 236.66 36.66 237.32 37 238 C39.3260857 238.38063221 41.66055264 238.71269945 44 239 C44.66 239.33 45.32 239.66 46 240 C49.62263688 240.28599765 51.88923699 239.88867754 55 238 C56.29633621 236.93354885 56.29633621 236.93354885 56.0625 234.4375 C56.0315625 233.2309375 56.0315625 233.2309375 56 232 C54.0509375 232.061875 54.0509375 232.061875 52.0625 232.125 C45.52280435 232.125 38.89158604 230.94579302 33 228 C32.67 227.34 32.34 226.68 32 226 C31.01 226 30.02 226 29 226 C28.34 225.34 27.68 224.68 27 224 C25.73614721 223.07373261 24.46438208 222.15822205 23.1875 221.25 C20.4566636 219.24145004 18.26742913 217.30100638 16.1875 214.625 C15.1046875 213.325625 15.1046875 213.325625 14 212 C13.01 212 12.02 212 11 212 C10.67 211.34 10.34 210.68 10 210 C6.84765384 207.0415339 4.70692992 206.63382504 0.4375 206.75 C-0.98755859 206.77320313 -0.98755859 206.77320313 -2.44140625 206.796875 C-5.11957113 206.90643658 -5.11957113 206.90643658 -8 208 C-8 208.66 -8 209.32 -8 210 C-8.9075 209.95875 -9.815 209.9175 -10.75 209.875 C-14.04645974 210.00178691 -15.19595074 210.47051859 -18 212 C-22.52297584 213.50765861 -26.25108189 214.11043996 -31 214 C-31.99 214.495 -31.99 214.495 -33 215 C-35.1298547 211.16626155 -36.5447998 208.07443 -35.390625 203.6796875 C-34.64335494 201.43082761 -33.85256433 199.21088715 -33 197 C-33.928125 196.855625 -34.85625 196.71125 -35.8125 196.5625 C-39 196 -39 196 -42 195 C-42.99 195.495 -42.99 195.495 -44 196 C-44.495 195.01 -44.495 195.01 -45 194 C-47.31939207 193.2863409 -49.65523449 192.6252708 -52 192 C-55.06036508 190.88713997 -57.26883212 189.82077859 -60 188 C-61.32 188 -62.64 188 -64 188 C-64.33 187.34 -64.66 186.68 -65 186 C-65.99 185.67 -66.98 185.34 -68 185 C-68.66 184.34 -69.32 183.68 -70 183 C-71.66279327 181.9935725 -73.32983484 180.99414593 -75 180 C-75.680625 179.484375 -76.36125 178.96875 -77.0625 178.4375 C-78.95836393 176.94388182 -78.95836393 176.94388182 -81.125 175.9375 C-83.56313313 174.71843343 -85.08033799 172.91966201 -87 171 C-88.32 171 -89.64 171 -91 171 Z M83 170 C82.443125 170.5878125 82.443125 170.5878125 81.875 171.1875 C75.26315789 177.57894737 75.26315789 177.57894737 71 179 C70.67 179.66 70.34 180.32 70 181 C68.42836341 181.89317052 66.81703823 182.71743991 65.1875 183.5 C64.31480469 183.9228125 63.44210937 184.345625 62.54296875 184.78125 C61.70378906 185.1834375 60.86460937 185.585625 60 186 C59.28328125 186.36480469 58.5665625 186.72960937 57.828125 187.10546875 C56 188 56 188 53.5625 188.8125 C50.33858359 190.30651004 48.3897868 192.40537433 46 195 C46.639375 195.61875 47.27875 196.2375 47.9375 196.875 C50 199 50 199 51 201 C50.8125 203 50.8125 203 50 205 C47.9375 206.25 47.9375 206.25 46 207 C46 206.34 46 205.68 46 205 C44.86818646 203.83388908 43.72702637 202.67575951 42.546875 201.55859375 C40.78599696 199.78437572 39.26282656 197.87775313 37.6875 195.9375 C34.23052313 191.9394311 30.79518835 190.03459394 26 188 C25.08863281 187.47792969 24.17726563 186.95585937 23.23828125 186.41796875 C19.4812036 184.77283101 16.27583075 184.54263376 12.25 184.625 C11.54697754 184.63297607 10.84395508 184.64095215 10.11962891 184.64916992 C1.96421321 184.87097776 -4.84944808 187.08422156 -12 191 C-13.33333333 191.66666667 -14.66666667 192.33333333 -16 193 C-16 193.66 -16 194.32 -16 195 C-16.87398437 195.38865234 -16.87398437 195.38865234 -17.765625 195.78515625 C-20.16343838 197.08886248 -21.81756794 198.51745533 -23.75 200.4375 C-24.67039062 201.33275391 -24.67039062 201.33275391 -25.609375 202.24609375 C-27.31064194 204.01874136 -27.31064194 204.01874136 -27 207 C-23.48017381 206.39248551 -20.41099765 205.45353734 -17.125 204.0625 C-8.12905744 200.42443499 1.71110496 197.52582511 11.1875 201.375 C14 203 14 203 15 205 C15.721875 205.391875 16.44375 205.78375 17.1875 206.1875 C19.77983249 207.85811427 20.90880041 209.01067407 22.75 211.375 C25.70722209 215.02713067 28.95997757 216.90330557 33.14453125 218.95703125 C35 220 35 220 36 222 C38.36195411 222.60602665 38.36195411 222.60602665 41 223 C41.93779297 223.23976563 41.93779297 223.23976563 42.89453125 223.484375 C49.01692903 224.98373772 54.07537699 225.53912415 60 223 C60.99 222.67 61.98 222.34 63 222 C63.6837045 220.67532254 64.34964186 219.34136367 65 218 C65.99 217.34 66.98 216.68 68 216 C70.39338951 213.3478706 70.39338951 213.3478706 71 210 C71.66 210 72.32 210 73 210 C73.28875 209.030625 73.5775 208.06125 73.875 207.0625 C75 204 75 204 77 203 C78.05464649 201.0282696 79.04605164 199.02237052 80 197 C80.53625 195.989375 81.0725 194.97875 81.625 193.9375 C83.40314956 190.13872595 83.90099999 186.76371437 84.4375 182.625 C85.01206665 178.92223715 85.90528979 175.57605334 87 172 C85.68 171.34 84.36 170.68 83 170 Z M-49 224 C-51 225 -53 226 -55 227 C-55 227.66 -55 228.32 -55 229 C-56.175625 229.2165625 -56.175625 229.2165625 -57.375 229.4375 C-59.96421018 229.87798925 -59.96421018 229.87798925 -62 231 C-61.67 232.32 -61.34 233.64 -61 235 C-56.545 234.505 -56.545 234.505 -52 234 C-52 233.34 -52 232.68 -52 232 C-50.63875 231.566875 -50.63875 231.566875 -49.25 231.125 C-44.42075353 229.45333776 -41.87948147 228.31922221 -39 224 C-39.66 224 -40.32 224 -41 224 C-41 223.34 -41 222.68 -41 222 C-44.88871684 222 -45.82293056 222.21289844 -49 224 Z M-42 236 C-42.33 236.66 -42.66 237.32 -43 238 C-43.78375 238.103125 -44.5675 238.20625 -45.375 238.3125 C-48.24488979 238.7633084 -48.24488979 238.7633084 -49.8125 241.5625 C-50.204375 242.366875 -50.59625 243.17125 -51 244 C-50.34 244.66 -49.68 245.32 -49 246 C-47.1381966 245.7872678 -47.1381966 245.7872678 -45 245 C-43.9275 244.649375 -42.855 244.29875 -41.75 243.9375 C-40.8425 243.628125 -39.935 243.31875 -39 243 C-39 242.34 -39 241.68 -39 241 C-37.68 241 -36.36 241 -35 241 C-34.67 240.34 -34.34 239.68 -34 239 C-33.21625 238.690625 -32.4325 238.38125 -31.625 238.0625 C-29.0042489 237.00171979 -27.86767248 236.04554605 -26 234 C-25.34 233.67 -24.68 233.34 -24 233 C-24 232.34 -24 231.68 -24 231 C-30.53164718 226.64556854 -36.38967662 231.95534826 -42 236 Z M-28 244 C-28 244.66 -28 245.32 -28 246 C-29.32 246 -30.64 246 -32 246 C-32.66 246.66 -33.32 247.32 -34 248 C-34.99 248.66 -35.98 249.32 -37 250 C-37 250.99 -37 251.98 -37 253 C-32.23838118 253.44640176 -28.24293286 252.0418529 -24 250 C-23.34 249.34 -22.68 248.68 -22 248 C-20.34738161 246.97695052 -18.68208635 245.97383946 -17 245 C-17.66 243.68 -18.32 242.36 -19 241 C-22.69418201 241 -24.77836178 242.28179295 -28 244 Z M-15 251 C-15 251.66 -15 252.32 -15 253 C-15.639375 253.268125 -16.27875 253.53625 -16.9375 253.8125 C-19.33131686 254.88667752 -19.33131686 254.88667752 -20 258 C-19.34 258 -18.68 258 -18 258 C-17.67 257.34 -17.34 256.68 -17 256 C-16.01 255.67 -15.02 255.34 -14 255 C-14.33 253.68 -14.66 252.36 -15 251 Z M-3 253 C-3 253.99 -3 254.98 -3 256 C-1.02 256.66 0.96 257.32 3 258 C3.2094457 255.91117258 3.2094457 255.91117258 1.6875 254.375 C-0.02482427 252.68416352 -0.02482427 252.68416352 -3 253 Z M3 258 C3 258.66 3 259.32 3 260 C4.32 259.67 5.64 259.34 7 259 C5.68 258.67 4.36 258.34 3 258 Z " fill="#569299" transform="translate(253,99)"/>
<path d="M0 0 C1.65 0 3.3 0 5 0 C5.33 2.31 5.66 4.62 6 7 C6.66 7 7.32 7 8 7 C8.66 5.02 9.32 3.04 10 1 C11.65 1 13.3 1 15 1 C15.66 3.31 16.32 5.62 17 8 C17.99 6.02 18.98 4.04 20 2 C21.65 2 23.3 2 25 2 C23.25192871 7.46737191 21.34205919 12.75824848 19 18 C17.35 17.67 15.7 17.34 14 17 C13.34 15.02 12.68 13.04 12 11 C11.4225 11.99 10.845 12.98 10.25 14 C9.5075 14.99 8.765 15.98 8 17 C6.68 17 5.36 17 4 17 C3.33191847 14.35451646 2.66546951 11.7086406 2 9.0625 C1.80921875 8.30775391 1.6184375 7.55300781 1.421875 6.77539062 C0 1.11328125 0 1.11328125 0 0 Z " fill="#67A4A9" transform="translate(224,392)"/>
<path d="M0 0 C0.99 0 1.98 0 3 0 C4.03572896 1.74122549 5.0531252 3.49336595 6.0625 5.25 C6.63097656 6.22453125 7.19945312 7.1990625 7.78515625 8.203125 C9 11 9 11 8.87109375 13.296875 C8 15 8 15 5 16 C4.34 14.68 3.68 13.36 3 12 C2.38125 12.7425 2.38125 12.7425 1.75 13.5 C0 15 0 15 -4 15 C-3.34 16.65 -2.68 18.3 -2 20 C-3.98 20.99 -3.98 20.99 -6 22 C-7.20005531 19.9021477 -8.38502983 17.7979751 -9.5625 15.6875 C-10.07586914 14.79514648 -10.07586914 14.79514648 -10.59960938 13.88476562 C-11.47766262 12.29717441 -12.24586268 10.65006069 -13 9 C-12.67 8.01 -12.34 7.02 -12 6 C-8.47930015 6.58678331 -6.28700157 7.35649921 -3 9 C-2.01 6.03 -1.02 3.06 0 0 Z " fill="#67A4A9" transform="translate(319,375)"/>
<path d="M0 0 C5.44693314 -0.09688221 10.63904667 -0.12862175 16 1 C16 2.32 16 3.64 16 5 C14.02 5.33 12.04 5.66 10 6 C10.66 7.32 11.32 8.64 12 10 C11.01 10.99 10.02 11.98 9 13 C11.97 13.495 11.97 13.495 15 14 C15 15.32 15 16.64 15 18 C9.72 18 4.44 18 -1 18 C-1 16.35 -1 14.7 -1 13 C1.3832946 11.18116991 2.95818337 10 6 10 C6 9.34 6 8.68 6 8 C5.401875 7.71125 4.80375 7.4225 4.1875 7.125 C2 6 2 6 -1 4 C-0.67 2.68 -0.34 1.36 0 0 Z " fill="#66A4A9" transform="translate(390,253)"/>
<path d="M0 0 C2.4375 1.125 2.4375 1.125 4 3 C5.27660161 6.82980483 5.18425101 8.53498554 3.6875 12.3125 C2 15 2 15 0 16 C-7.0521327 16.56872038 -7.0521327 16.56872038 -10.5 14.5 C-12.62153384 10.96411027 -12.791013 8.02098277 -12 4 C-9.1255336 -0.79077733 -5.1097919 -0.84988325 0 0 Z M-6 4 C-8.30671915 6.71549154 -8.30671915 6.71549154 -7.625 9.1875 C-7.41875 9.785625 -7.2125 10.38375 -7 11 C-5.35 11.33 -3.7 11.66 -2 12 C-2.495 11.566875 -2.99 11.13375 -3.5 10.6875 C-5 9 -5 9 -5 6 C-2.525 6.99 -2.525 6.99 0 8 C-0.33 6.68 -0.66 5.36 -1 4 C-3.41619823 3.74969023 -3.41619823 3.74969023 -6 4 Z " fill="#65A5AB" transform="translate(196,382)"/>
<path d="M0 0 C1.58177926 4.15217057 2.40478458 7.54736965 2 12 C-0.37403971 14.37403971 -1.77476889 14.42111236 -5 15 C-5.33 15.33 -5.66 15.66 -6 16 C-7.99958364 16.04080783 -10.00045254 16.04254356 -12 16 C-12.67119549 14.5437455 -13.33681807 13.08492133 -14 11.625 C-14.37125 10.81289063 -14.7425 10.00078125 -15.125 9.1640625 C-16 7 -16 7 -16 5 C-13.89828133 4.1605118 -11.79353375 3.32860344 -9.6875 2.5 C-8.51574219 2.0359375 -7.34398438 1.571875 -6.13671875 1.09375 C-3 0 -3 0 0 0 Z M-5 6 C-4.67 6.99 -4.34 7.98 -4 9 C-3.34 9 -2.68 9 -2 9 C-2 8.01 -2 7.02 -2 6 C-2.99 6 -3.98 6 -5 6 Z M-11 8 C-10.67 9.32 -10.34 10.64 -10 12 C-9.01 11.67 -8.02 11.34 -7 11 C-7.33 10.01 -7.66 9.02 -8 8 C-8.99 8 -9.98 8 -11 8 Z " fill="#68A3A8" transform="translate(118,298)"/>
<path d="M0 0 C3.38216497 2.16805447 3.898503 3.594012 4.875 7.5 C5.05287714 12.48055988 5.05287714 12.48055988 3 15 C-0.10586001 16.86351601 -1.97854043 17.00073999 -5.625 16.875 C-9 16 -9 16 -10.9375 14.4375 C-12.47842566 10.90243524 -12.67595245 7.79154935 -12 4 C-9.1635787 -0.72736883 -5.07159122 -1.01015267 0 0 Z M-6.75 5.25 C-8.24915434 6.93420967 -8.24915434 6.93420967 -7.75 9.125 C-7.15045529 10.98085115 -7.15045529 10.98085115 -6 12 C-3.5 12.16666667 -3.5 12.16666667 -1 12 C0.27003323 10.94689723 0.27003323 10.94689723 0.1875 8.5625 C0.26839983 5.83265325 0.26839983 5.83265325 -2 4 C-4.95156348 3.7093809 -4.95156348 3.7093809 -6.75 5.25 Z " fill="#67A3A9" transform="translate(397,212)"/>
<path d="M0 0 C5.65020618 0.60108576 10.66164461 2.07528683 16 4 C15.72265625 5.890625 15.72265625 5.890625 15 8 C11.4375 9.75 11.4375 9.75 8 11 C10.475 11.99 10.475 11.99 13 13 C13 14.32 13 15.64 13 17 C7.13190493 16.47606294 2.45126259 15.23891142 -3 13 C-2.72265625 11.109375 -2.72265625 11.109375 -2 9 C1.5625 7.25 1.5625 7.25 5 6 C2.525 5.01 2.525 5.01 0 4 C0 2.68 0 1.36 0 0 Z " fill="#66A5AA" transform="translate(102,204)"/>
<path d="M0 0 C1.19354869 3.72983966 1.40965996 7.10823039 1 11 C-1.61568121 14.72536415 -3.0603933 15.83515672 -7.5625 16.625 C-11 16 -11 16 -13.375 14 C-15.44460186 10.17919657 -15.7072223 7.31847103 -16 3 C-10.35891907 1.07690423 -5.98762671 -0.13608243 0 0 Z M-11 6 C-10.67 7.65 -10.34 9.3 -10 11 C-7.58354218 11.16687448 -7.58354218 11.16687448 -5 11 C-4.34 10.34 -3.68 9.68 -3 9 C-3.3185177 6.89179203 -3.3185177 6.89179203 -4 5 C-6.62113708 5 -8.50935112 5.31292445 -11 6 Z " fill="#67A4A9" transform="translate(113,279)"/>
<path d="M0 0 C2.4375 1.4375 2.4375 1.4375 4 4 C4.77201236 8.33759522 4.75587974 11.76035723 2.4375 15.5625 C-0.97016272 17.57214724 -3.10418263 17.54678139 -7 17 C-9.9375 15.5625 -9.9375 15.5625 -12 13 C-12.71014629 9.85341686 -12.71014629 7.14658314 -12 4 C-8.56691207 -0.26535167 -5.30823445 -0.77210683 0 0 Z M-6.1875 4.9375 C-6.785625 5.288125 -7.38375 5.63875 -8 6 C-8 7.65 -8 9.3 -8 11 C-5.525 11.99 -5.525 11.99 -3 13 C-1.33378575 11.8354799 -1.33378575 11.8354799 0 10 C-0.23043864 7.34533951 -0.23043864 7.34533951 -1 5 C-3.89186786 3.66695302 -3.89186786 3.66695302 -6.1875 4.9375 Z " fill="#67A4AA" transform="translate(398,277)"/>
<path d="M0 0 C0.99 0.66 1.98 1.32 3 2 C2 4 1 6 0 8 C3.465 7.505 3.465 7.505 7 7 C7.66 8.32 8.32 9.64 9 11 C7.741875 11.350625 6.48375 11.70125 5.1875 12.0625 C2.65628409 12.9853858 1.33240554 13.51276061 -0.19921875 15.7578125 C-1.12040525 17.88680095 -1.12040525 17.88680095 -2 21 C-3.32 19.68 -4.64 18.36 -6 17 C-5.34 15.02 -4.68 13.04 -4 11 C-5.98 11.66 -7.96 12.32 -10 13 C-10.33 11.68 -10.66 10.36 -11 9 C-7.37 6.03 -3.74 3.06 0 0 Z " fill="#65A5AA" transform="translate(138,339)"/>
<path d="M0 0 C0.66 0 1.32 0 2 0 C2.495 1.134375 2.99 2.26875 3.5 3.4375 C4.82541249 5.8194007 5.430125 6.8085916 8.046875 7.6875 C10.50160806 8.00182131 10.50160806 8.00182131 14 8 C13.67 9.32 13.34 10.64 13 12 C10.36 12.33 7.72 12.66 5 13 C6.32 14.32 7.64 15.64 9 17 C8.34 17.99 7.68 18.98 7 20 C3.37723685 18.6744419 0.36494652 17.05653045 -2.8125 14.875 C-3.60269531 14.33617187 -4.39289063 13.79734375 -5.20703125 13.2421875 C-5.79871094 12.83226562 -6.39039063 12.42234375 -7 12 C-6.34 10.68 -5.68 9.36 -5 8 C-3.02 8.66 -1.04 9.32 1 10 C0.195625 8.9171875 0.195625 8.9171875 -0.625 7.8125 C-2 5 -2 5 -1.1875 2.1875 C-0.795625 1.465625 -0.40375 0.74375 0 0 Z " fill="#65A6AB" transform="translate(369,326)"/>
<path d="M0 0 C3.62276315 1.3255581 6.63505348 2.94346955 9.8125 5.125 C10.60269531 5.66382813 11.39289063 6.20265625 12.20703125 6.7578125 C12.79871094 7.16773438 13.39039063 7.57765625 14 8 C13.67 9.32 13.34 10.64 13 12 C10.69 11.34 8.38 10.68 6 10 C6.515625 10.721875 7.03125 11.44375 7.5625 12.1875 C9.21442982 15.4195366 9.06351675 16.61608307 8 20 C4.58841744 18.86280581 3.88145399 17.95657056 2 15 C2 14.34 2 13.68 2 13 C-0.97 12.67 -3.94 12.34 -7 12 C-6.34 10.68 -5.68 9.36 -5 8 C-2.36 8 0.28 8 3 8 C3 7.34 3 6.68 3 6 C1.68 5.67 0.36 5.34 -1 5 C-0.67 3.35 -0.34 1.7 0 0 Z " fill="#66A4AA" transform="translate(121,166)"/>
<path d="M0 0 C0.66 0.66 1.32 1.32 2 2 C1.69670231 5.84177074 0.47524576 8.09427672 -2 11 C-1.401875 10.67 -0.80375 10.34 -0.1875 10 C2 9 2 9 5 9 C5.33 10.32 5.66 11.64 6 13 C1.0778687 15.63365987 -3.57903298 17.64475824 -9 19 C-9.66 17.68 -10.32 16.36 -11 15 C-9.35 14.01 -7.7 13.02 -6 12 C-8.31 11.34 -10.62 10.68 -13 10 C-13.33 8.68 -13.66 7.36 -14 6 C-13.40832031 5.98582031 -12.81664062 5.97164062 -12.20703125 5.95703125 C-7.64153157 5.68146275 -5.55838569 5.46722068 -1.9375 2.4375 C-1.298125 1.633125 -0.65875 0.82875 0 0 Z " fill="#67A3A9" transform="translate(391,190)"/>
<path d="M0 0 C5.23272633 1.63958758 10.15196636 3.38952035 15 6 C14.67 7.32 14.34 8.64 14 10 C11.03 9.505 11.03 9.505 8 9 C8.474375 9.78375 8.94875 10.5675 9.4375 11.375 C10.33898023 12.88948678 11.21179485 14.4235897 12 16 C11.01 16.99 10.02 17.98 9 19 C8.360625 18.195625 7.72125 17.39125 7.0625 16.5625 C3.09872551 13.24587237 0.02705917 13.12047418 -5 13 C-4.67 11.68 -4.34 10.36 -4 9 C-1.36 8.67 1.28 8.34 4 8 C4 7.34 4 6.68 4 6 C1.525 5.01 1.525 5.01 -1 4 C-0.67 2.68 -0.34 1.36 0 0 Z " fill="#65A5AB" transform="translate(110,184)"/>
<path d="M0 0 C0.33 1.32 0.66 2.64 1 4 C-1.97 5.65 -4.94 7.3 -8 9 C-8 9.66 -8 10.32 -8 11 C-5.40654747 10.56775791 -3.23633767 10.11816884 -0.875 8.9375 C1 8 1 8 4 8 C4.33 9.32 4.66 10.64 5 12 C-2.62975779 17 -2.62975779 17 -7.9375 17 C-11 16 -11 16 -13 13 C-13.6875 9.6875 -13.6875 9.6875 -13 6 C-9.0309935 2.20500005 -5.52948107 0 0 0 Z " fill="#66A5AB" transform="translate(125,315)"/>
<path d="M0 0 C1.12341797 0.14695312 1.12341797 0.14695312 2.26953125 0.296875 C2.60913315 2.17074977 2.94091816 4.04604197 3.26953125 5.921875 C3.45515625 6.96601563 3.64078125 8.01015625 3.83203125 9.0859375 C4.25668922 12.20262365 4.34498331 15.15618312 4.26953125 18.296875 C-0.60546875 16.546875 -0.60546875 16.546875 -1.73046875 14.296875 C-2.82359375 14.4825 -3.91671875 14.668125 -5.04296875 14.859375 C-8.73046875 15.296875 -8.73046875 15.296875 -11.73046875 14.296875 C-10.18881105 11.0464834 -8.39808545 8.04997882 -6.41796875 5.046875 C-5.84433594 4.15484375 -5.27070313 3.2628125 -4.6796875 2.34375 C-2.73046875 0.296875 -2.73046875 0.296875 0 0 Z M-1.73046875 6.296875 C-2.06046875 7.616875 -2.39046875 8.936875 -2.73046875 10.296875 C-2.07046875 10.296875 -1.41046875 10.296875 -0.73046875 10.296875 C-1.06046875 8.976875 -1.39046875 7.656875 -1.73046875 6.296875 Z " fill="#66A4AA" transform="translate(213.73046875,388.703125)"/>
<path d="M0 0 C1.32 0.33 2.64 0.66 4 1 C3.67 2.98 3.34 4.96 3 7 C3.99 5.68 4.98 4.36 6 3 C6.99 3.33 7.98 3.66 9 4 C8.67 5.65 8.34 7.3 8 9 C8.66 9.33 9.32 9.66 10 10 C10.66 8.35 11.32 6.7 12 5 C12.99 5.33 13.98 5.66 15 6 C14.43454163 9.95820859 13.19097652 12.6659053 11 16 C7.14974121 15.39644592 4.13898841 14.23227397 0.6875 12.4375 C-0.19550781 11.98246094 -1.07851563 11.52742188 -1.98828125 11.05859375 C-2.65214844 10.70925781 -3.31601562 10.35992187 -4 10 C-2.8905928 6.51329166 -1.73662334 3.22515763 0 0 Z " fill="#67A3A8" transform="translate(376,312)"/>
<path d="M0 0 C2.9375 0.8125 2.9375 0.8125 4.9375 3.8125 C5.125 7.1875 5.125 7.1875 3.9375 10.8125 C0.28998664 13.70884229 -3.36100898 15.8125 -8.0625 15.8125 C-9.7125 12.8425 -11.3625 9.8725 -13.0625 6.8125 C-11.7425 6.4825 -10.4225 6.1525 -9.0625 5.8125 C-8.4025 7.1325 -7.7425 8.4525 -7.0625 9.8125 C-6.7325 9.4825 -6.4025 9.1525 -6.0625 8.8125 C-6.10375 7.678125 -6.145 6.54375 -6.1875 5.375 C-6.14625 4.199375 -6.105 3.02375 -6.0625 1.8125 C-3.0625 -0.1875 -3.0625 -0.1875 0 0 Z M-1.0625 3.8125 C-1.3925 5.1325 -1.7225 6.4525 -2.0625 7.8125 C-1.0725 8.3075 -1.0725 8.3075 -0.0625 8.8125 C0.2675 7.4925 0.5975 6.1725 0.9375 4.8125 C0.2775 4.4825 -0.3825 4.1525 -1.0625 3.8125 Z M-0.0625 8.8125 C0.9375 10.8125 0.9375 10.8125 0.9375 10.8125 Z " fill="#65A5AB" transform="translate(377.0625,167.1875)"/>
<path d="M0 0 C0 1.32 0 2.64 0 4 C-1.98 4 -3.96 4 -6 4 C-6 4.66 -6 5.32 -6 6 C-4.02 6 -2.04 6 0 6 C0 7.32 0 8.64 0 10 C-1.98 10 -3.96 10 -6 10 C-6 10.99 -6 11.98 -6 13 C-2.535 12.505 -2.535 12.505 1 12 C1 13.32 1 14.64 1 16 C-2 17 -2 17 -10 17 C-10.33 11.72 -10.66 6.44 -11 1 C-7.1273408 0.0318352 -3.96388638 -0.07622858 0 0 Z " fill="#66A4AA" transform="translate(264,393)"/>
<path d="M0 0 C1.32 1.32 2.64 2.64 4 4 C2.02 8.95 0.04 13.9 -2 19 C-3.32 18.34 -4.64 17.68 -6 17 C-6.75 14.375 -6.75 14.375 -7 12 C-7.969375 11.731875 -8.93875 11.46375 -9.9375 11.1875 C-10.948125 10.795625 -11.95875 10.40375 -13 10 C-13.33 9.01 -13.66 8.02 -14 7 C-9.38 4.69 -4.76 2.38 0 0 Z M-5 7 C-5 7.66 -5 8.32 -5 9 C-4.34 9 -3.68 9 -3 9 C-3 8.34 -3 7.68 -3 7 C-3.66 7 -4.32 7 -5 7 Z " fill="#66A4AA" transform="translate(154,356)"/>
<path d="M0 0 C3.5625 0.4375 3.5625 0.4375 5.5 2.8125 C6.5625 5.4375 6.5625 5.4375 6.5625 7.4375 C7.8825 7.4375 9.2025 7.4375 10.5625 7.4375 C10.5625 9.0875 10.5625 10.7375 10.5625 12.4375 C2.6425 12.9325 2.6425 12.9325 -5.4375 13.4375 C-5.6328125 5.0390625 -5.6328125 5.0390625 -5.4375 2.4375 C-3.4375 0.4375 -3.4375 0.4375 0 0 Z M-0.4375 4.4375 C-0.7675 5.7575 -1.0975 7.0775 -1.4375 8.4375 C-0.1175 8.4375 1.2025 8.4375 2.5625 8.4375 C2.2325 7.1175 1.9025 5.7975 1.5625 4.4375 C0.9025 4.4375 0.2425 4.4375 -0.4375 4.4375 Z " fill="#67A3A9" transform="translate(394.4375,233.5625)"/>
<path d="M0 0 C0.33 1.32 0.66 2.64 1 4 C0.01 4.33 -0.98 4.66 -2 5 C-1.67 8.96 -1.34 12.92 -1 17 C-2.65 16.67 -4.3 16.34 -6 16 C-6.66 12.7 -7.32 9.4 -8 6 C-9.65 6.33 -11.3 6.66 -13 7 C-13.33 5.68 -13.66 4.36 -14 3 C-4.58997722 -0.44419134 -4.58997722 -0.44419134 0 0 Z " fill="#66A4AA" transform="translate(291,388)"/>
<path d="M0 0 C1.32 0 2.64 0 4 0 C4.08333357 4.8333472 3.95261487 9.23692563 3 14 C1.68 14 0.36 14 -1 14 C-1 12.35 -1 10.7 -1 9 C-4.96 8.67 -8.92 8.34 -13 8 C-13 6.68 -13 5.36 -13 4 C-8.71 4 -4.42 4 0 4 C0 2.68 0 1.36 0 0 Z " fill="#67A3A9" transform="translate(107,240)"/>
<path d="M0 0 C1.9765625 1.0078125 1.9765625 1.0078125 3.2421875 3.87890625 C3.56703125 5.05582031 3.891875 6.23273438 4.2265625 7.4453125 C4.56171875 8.61964844 4.896875 9.79398437 5.2421875 11.00390625 C5.9765625 14.0078125 5.9765625 14.0078125 5.9765625 16.0078125 C3.9965625 16.9978125 3.9965625 16.9978125 1.9765625 18.0078125 C1.68652344 17.19376953 1.68652344 17.19376953 1.390625 16.36328125 C1.13023437 15.64785156 0.86984375 14.93242187 0.6015625 14.1953125 C0.34632813 13.48761719 0.09109375 12.77992188 -0.171875 12.05078125 C-1.0500144 9.76007891 -1.0500144 9.76007891 -3.0234375 7.0078125 C-3.6834375 7.6678125 -4.3434375 8.3278125 -5.0234375 9.0078125 C-7.1484375 8.6328125 -7.1484375 8.6328125 -9.0234375 8.0078125 C-7.45726492 4.02119139 -4.63073754 0.0178793 0 0 Z " fill="#64A6AB" transform="translate(342.0234375,359.9921875)"/>
<path d="M0 0 C0.99 0 1.98 0 3 0 C4.05881632 2.26419196 5.09702932 4.53435538 6.125 6.8125 C6.42792969 7.45509766 6.73085938 8.09769531 7.04296875 8.75976562 C7.8828125 10.64453125 7.8828125 10.64453125 9 14 C8.01 15.485 8.01 15.485 7 17 C4 16 4 16 2.83203125 13.93359375 C2.49558594 13.10988281 2.15914063 12.28617187 1.8125 11.4375 C1.46832031 10.61121094 1.12414062 9.78492188 0.76953125 8.93359375 C0.51558594 8.29550781 0.26164062 7.65742188 0 7 C-0.99 7.99 -1.98 8.98 -3 10 C-4.32 9.34 -5.64 8.68 -7 8 C-6.02133662 6.85373678 -5.04205413 5.70800212 -4.0625 4.5625 C-3.51722656 3.92441406 -2.97195313 3.28632813 -2.41015625 2.62890625 C-1.63204305 1.73008851 -0.84063472 0.84063472 0 0 Z " fill="#64A5AB" transform="translate(352,349)"/>
<path d="M0 0 C1.32 0.33 2.64 0.66 4 1 C3.36934243 4.21852831 2.21979305 6.50801069 0.4375 9.25 C-0.01753906 9.95640625 -0.47257813 10.6628125 -0.94140625 11.390625 C-1.46541016 12.18726563 -1.46541016 12.18726563 -2 13 C0.475 13.99 0.475 13.99 3 15 C2.34 16.32 1.68 17.64 1 19 C-2.11198065 17.50163895 -5.0534615 15.80066242 -8 14 C-7.37606349 10.23880524 -5.65226285 7.81039958 -3.4375 4.75 C-2.79683594 3.85796875 -2.15617188 2.9659375 -1.49609375 2.046875 C-0.75552734 1.03367187 -0.75552734 1.03367187 0 0 Z " fill="#67A3A9" transform="translate(165,366)"/>
<path d="M0 0 C1.32 0.33 2.64 0.66 4 1 C3.32829194 4.8063457 2.27253436 8.35206816 1 12 C-4.36095277 10.41078475 -9.70843973 8.81027062 -15 7 C-14.67 5.35 -14.34 3.7 -14 2 C-8.06 3.485 -8.06 3.485 -2 5 C-1.34 3.35 -0.68 1.7 0 0 Z " fill="#66A4AA" transform="translate(394,300)"/>
<path d="M0 0 C0.66 0.33 1.32 0.66 2 1 C0.51770549 4.43605181 -1.4295174 6.68701591 -4.0625 9.328125 C-5.25746094 10.52695313 -5.25746094 10.52695313 -6.4765625 11.75 C-7.30929688 12.575 -8.14203125 13.4 -9 14.25 C-9.83273438 15.09046875 -10.66546875 15.9309375 -11.5234375 16.796875 C-12.32007813 17.5909375 -13.11671875 18.385 -13.9375 19.203125 C-14.66839844 19.93176758 -15.39929688 20.66041016 -16.15234375 21.41113281 C-18 23 -18 23 -20 23 C-19.45634458 19.01583909 -17.56534815 17.21636772 -14.74609375 14.453125 C-13.89208984 13.60878906 -13.03808594 12.76445313 -12.15820312 11.89453125 C-11.26037109 11.02183594 -10.36253906 10.14914063 -9.4375 9.25 C-8.53580078 8.36183594 -7.63410156 7.47367187 -6.70507812 6.55859375 C-4.47662902 4.36551685 -2.24148407 2.17973956 0 0 Z " fill="#478792" transform="translate(238,106)"/>
<path d="M0 0 C2.35546875 0.1640625 2.35546875 0.1640625 5 1 C6.36328125 3.3984375 6.36328125 3.3984375 7.3125 6.375 C7.63863281 7.35210937 7.96476562 8.32921875 8.30078125 9.3359375 C9 12 9 12 9 15 C7.68 15.33 6.36 15.66 5 16 C4.1605118 13.89828133 3.32860344 11.79353375 2.5 9.6875 C2.0359375 8.51574219 1.571875 7.34398437 1.09375 6.13671875 C0 3 0 3 0 0 Z " fill="#66A4AA" transform="translate(296,385)"/>
<path d="M0 0 C2.125 0.375 2.125 0.375 4 1 C2.23570801 5.97209562 -0.3939166 10.43438061 -3 15 C-4.65 14.67 -6.3 14.34 -8 14 C-7.04661031 12.03925516 -6.0871246 10.08147348 -5.125 8.125 C-4.59132812 7.03445313 -4.05765625 5.94390625 -3.5078125 4.8203125 C-2 2 -2 2 0 0 Z " fill="#67A3A8" transform="translate(179,375)"/>
<path d="M0 0 C0 1.32 0 2.64 0 4 C-2.9615696 5.4807848 -5.83506295 5.35314037 -9.125 5.5625 C-10.40632813 5.64628906 -11.68765625 5.73007812 -13.0078125 5.81640625 C-13.99523437 5.87699219 -14.98265625 5.93757813 -16 6 C-16 4.35 -16 2.7 -16 1 C-10.62915894 0.31798844 -5.41499441 -0.11521265 0 0 Z " fill="#67A3A9" transform="translate(111,268)"/>
<path d="M0 0 C1.485 0.99 1.485 0.99 3 2 C3.328125 4.2421875 3.328125 4.2421875 3.25 6.875 C3.23453125 7.73867188 3.2190625 8.60234375 3.203125 9.4921875 C3.01719724 11.78768024 2.63022078 13.79185803 2 16 C1.814375 16.7425 1.62875 17.485 1.4375 18.25 C1.293125 18.8275 1.14875 19.405 1 20 C0.67 20 0.34 20 0 20 C0 13.4 0 6.8 0 0 Z " fill="#2D7F8A" transform="translate(346,256)"/>
<path d="M0 0 C3.62993774 2.33150048 6.55845281 4.31409254 7.6875 8.625 C7.91240709 11.09897803 8.03435318 13.51675613 8 16 C7.34 16 6.68 16 6 16 C4.40400888 13.40651442 3.99569591 12.10329821 4.125 9 C4.31158272 5.87273077 4.31158272 5.87273077 2 3.75 C1.34 3.1725 0.68 2.595 0 2 C0 1.34 0 0.68 0 0 Z " fill="#20626F" transform="translate(177,322)"/>
<path d="M0 0 C1.32 0.66 2.64 1.32 4 2 C3.34 4.31 2.68 6.62 2 9 C1.01 8.67 0.02 8.34 -1 8 C-0.67 5.36 -0.34 2.72 0 0 Z " fill="#63A7AD" transform="translate(101,225)"/>
<path d="M0 0 C0.66 0 1.32 0 2 0 C2 0.66 2 1.32 2 2 C3.65 2.33 5.3 2.66 7 3 C7 3.99 7 4.98 7 6 C4.36 4.68 1.72 3.36 -1 2 C-0.67 1.34 -0.34 0.68 0 0 Z " fill="#2E5E6F" transform="translate(257,342)"/>
<path d="M0 0 C0 0.66 0 1.32 0 2 C-6.0546875 2.1953125 -6.0546875 2.1953125 -8 2 C-8.66 1.34 -9.32 0.68 -10 0 C-6.30581799 -1.231394 -3.7943739 -0.64432764 0 0 Z " fill="#29474B" transform="translate(228,289)"/>
<path d="M0 0 C1.98 0 3.96 0 6 0 C6 0.33 6 0.66 6 1 C4.02 1 2.04 1 0 1 C0 0.67 0 0.34 0 0 Z " fill="#00D4D4" transform="translate(251,297)"/>
<path d="M0 0 C4 1 4 1 4 1 Z " fill="#007FBF" transform="translate(223,314)"/>
<path d="M0 0 C3 1 3 1 3 1 Z " fill="#005555" transform="translate(230,365)"/>
<path d="" fill="#000000" transform="translate(0,0)"/>
<path d="" fill="#005555" transform="translate(0,0)"/>
<path d="M0 0 C3 1 3 1 3 1 Z " fill="#007FD4" transform="translate(209,312)"/>
<path d="M0 0 C2 1 2 1 2 1 Z " fill="#000000" transform="translate(219,350)"/>
<path d="M0 0 C2 1 2 1 2 1 Z " fill="#007F7F" transform="translate(257,285)"/>
<path d="" fill="#00FFFF" transform="translate(0,0)"/>
<path d="" fill="#000000" transform="translate(0,0)"/>
<path d="" fill="#004040" transform="translate(0,0)"/>
<path d="" fill="#000000" transform="translate(0,0)"/>
<path d="" fill="#0000FF" transform="translate(0,0)"/>
<path d="" fill="#808080" transform="translate(0,0)"/>
<path d="" fill="#000000" transform="translate(0,0)"/>
<path d="" fill="#000000" transform="translate(0,0)"/>
<path d="" fill="#000000" transform="translate(0,0)"/>
<path d="" fill="#00FFFF" transform="translate(0,0)"/>
<path d="" fill="#000000" transform="translate(0,0)"/>
<path d="" fill="#000000" transform="translate(0,0)"/>
<path d="" fill="#00FFFF" transform="translate(0,0)"/>
<path d="" fill="#000000" transform="translate(0,0)"/>
<path d="" fill="#000000" transform="translate(0,0)"/>
<path d="" fill="#000000" transform="translate(0,0)"/>
<path d="" fill="#000000" transform="translate(0,0)"/>
<path d="" fill="#000000" transform="translate(0,0)"/>
<path d="" fill="#00FFFF" transform="translate(0,0)"/>
<path d="" fill="#00FFFF" transform="translate(0,0)"/>
<path d="" fill="#000000" transform="translate(0,0)"/>
<path d="" fill="#000000" transform="translate(0,0)"/>
<path d="" fill="#00FFFF" transform="translate(0,0)"/>
<path d="" fill="#000000" transform="translate(0,0)"/>
<path d="" fill="#000000" transform="translate(0,0)"/>
<path d="" fill="#000000" transform="translate(0,0)"/>
<path d="" fill="#000000" transform="translate(0,0)"/>
<path d="" fill="#000000" transform="translate(0,0)"/>
<path d="" fill="#000000" transform="translate(0,0)"/>
<path d="" fill="#000000" transform="translate(0,0)"/>
<path d="" fill="#000000" transform="translate(0,0)"/>
<path d="" fill="#000000" transform="translate(0,0)"/>
<path d="" fill="#000000" transform="translate(0,0)"/>
<path d="" fill="#008080" transform="translate(0,0)"/>
<path d="" fill="#000000" transform="translate(0,0)"/>
<path d="" fill="#000000" transform="translate(0,0)"/>
<path d="" fill="#000000" transform="translate(0,0)"/>
<path d="" fill="#00FFFF" transform="translate(0,0)"/>
<path d="" fill="#FFFFFF" transform="translate(0,0)"/>
<path d="" fill="#000000" transform="translate(0,0)"/>
<path d="" fill="#000000" transform="translate(0,0)"/>
<path d="" fill="#000000" transform="translate(0,0)"/>
<path d="" fill="#000000" transform="translate(0,0)"/>
<path d="" fill="#000000" transform="translate(0,0)"/>
<path d="" fill="#000000" transform="translate(0,0)"/>
<path d="" fill="#000000" transform="translate(0,0)"/>
<path d="" fill="#000000" transform="translate(0,0)"/>
<path d="" fill="#000000" transform="translate(0,0)"/>
<path d="" fill="#000000" transform="translate(0,0)"/>
<path d="" fill="#000000" transform="translate(0,0)"/>
<path d="" fill="#000000" transform="translate(0,0)"/>
<path d="" fill="#000000" transform="translate(0,0)"/>
<path d="" fill="#000000" transform="translate(0,0)"/>
<path d="" fill="#000000" transform="translate(0,0)"/>
<path d="" fill="#000000" transform="translate(0,0)"/>
<path d="" fill="#000000" transform="translate(0,0)"/>
<path d="" fill="#000000" transform="translate(0,0)"/>
<path d="" fill="#000000" transform="translate(0,0)"/>
<path d="" fill="#000000" transform="translate(0,0)"/>
<path d="" fill="#000000" transform="translate(0,0)"/>
</svg>
